<svg xmlns="http://www.w3.org/2000/svg" xmlns:xlink="http://www.w3.org/1999/xlink" contentStyleType="text/css" data-diagram-type="ACTIVITY" height="569px" preserveAspectRatio="none" style="width:608px;height:569px;background:#FFFFFF;" version="1.1" viewBox="0 0 608 569" width="608px" zoomAndPan="magnify"><title>Pipeline de CI/CD (Exemplo)</title><defs/><g><g class="title" data-source-line="1"><text fill="#000000" font-family="sans-serif" font-size="14" font-weight="bold" lengthAdjust="spacing" textLength="220.1787" x="192.7319" y="32.9951">Pipeline de CI/CD (Exemplo)</text></g><ellipse cx="407.7285" cy="57.2969" fill="#222222" rx="10" ry="10" style="stroke:#222222;stroke-width:1;"/><rect fill="#F1F1F1" height="33.9688" rx="12.5" ry="12.5" style="stroke:#181818;stroke-width:0.5;" width="107.0527" x="354.2021" y="87.2969"/><text fill="#000000" font-family="sans-serif" font-size="12" lengthAdjust="spacing" textLength="87.0527" x="364.2021" y="108.4355">Commit no Git</text><polygon fill="#F1F1F1" points="358.5078,141.2656,456.9492,141.2656,468.9492,153.2656,456.9492,165.2656,358.5078,165.2656,346.5078,153.2656,358.5078,141.2656" style="stroke:#181818;stroke-width:0.5;"/><text fill="#000000" font-family="sans-serif" font-size="11" lengthAdjust="spacing" textLength="98.4414" x="358.5078" y="157.0737">Build &amp; Unit Test?</text><text fill="#000000" font-family="sans-serif" font-size="11" lengthAdjust="spacing" textLength="44.9614" x="301.5464" y="150.6714">Sucesso</text><text fill="#000000" font-family="sans-serif" font-size="11" lengthAdjust="spacing" textLength="29.8364" x="468.9492" y="150.6714">Falha</text><rect fill="#F1F1F1" height="33.9688" rx="12.5" ry="12.5" style="stroke:#181818;stroke-width:0.5;" width="149.4688" x="194.1953" y="175.2656"/><text fill="#000000" font-family="sans-serif" font-size="12" lengthAdjust="spacing" textLength="129.4688" x="204.1953" y="196.4043">Build Imagem Docker</text><rect fill="#F1F1F1" height="33.9688" rx="12.5" ry="12.5" style="stroke:#181818;stroke-width:0.5;" width="183.6875" x="177.0859" y="229.2344"/><text fill="#000000" font-family="sans-serif" font-size="12" lengthAdjust="spacing" textLength="163.6875" x="187.0859" y="250.373">Push Registro de Container</text><rect fill="#F1F1F1" height="33.9688" rx="12.5" ry="12.5" style="stroke:#181818;stroke-width:0.5;" width="134.5684" x="201.6455" y="283.2031"/><text fill="#000000" font-family="sans-serif" font-size="12" lengthAdjust="spacing" textLength="114.5684" x="211.6455" y="304.3418">Deploy em Staging</text><polygon fill="#F1F1F1" points="154.6274,337.1719,383.2319,337.1719,395.2319,349.1719,383.2319,361.1719,154.6274,361.1719,142.6274,349.1719,154.6274,337.1719" style="stroke:#181818;stroke-width:0.5;"/><text fill="#000000" font-family="sans-serif" font-size="11" lengthAdjust="spacing" textLength="228.6045" x="154.6274" y="352.98">Testes Integra&#231;&#227;o/Aceita&#231;&#227;o em Staging?</text><text fill="#000000" font-family="sans-serif" font-size="11" lengthAdjust="spacing" textLength="44.9614" x="97.666" y="346.5776">Sucesso</text><text fill="#000000" font-family="sans-serif" font-size="11" lengthAdjust="spacing" textLength="29.8364" x="395.2319" y="346.5776">Falha</text><rect fill="#F1F1F1" height="33.9688" rx="12.5" ry="12.5" style="stroke:#181818;stroke-width:0.5;" width="225.125" x="11" y="419.5742"/><text fill="#000000" font-family="sans-serif" font-size="12" lengthAdjust="spacing" textLength="205.125" x="21" y="440.7129">Deploy em Produ&#231;&#227;o (Blue/Green)</text><rect fill="#F1F1F1" height="33.9688" rx="12.5" ry="12.5" style="stroke:#181818;stroke-width:0.5;" width="182.6855" x="32.2197" y="482.1406"/><text fill="#000000" font-family="sans-serif" font-size="12" lengthAdjust="spacing" textLength="162.6855" x="42.2197" y="503.2793">Monitoramento P&#243;s-Deploy</text><polygon fill="#F1F1F1" points="49.71,371.1719,197.415,371.1719,209.415,383.1719,197.415,395.1719,49.71,395.1719,37.71,383.1719,49.71,371.1719" style="stroke:#181818;stroke-width:0.5;"/><text fill="#000000" font-family="sans-serif" font-size="11" lengthAdjust="spacing" textLength="52.7227" x="127.5625" y="405.3823">Aprovado</text><text fill="#000000" font-family="sans-serif" font-size="11" lengthAdjust="spacing" textLength="147.7051" x="49.71" y="386.98">Aprova&#231;&#227;o para Produ&#231;&#227;o?</text><text fill="#000000" font-family="sans-serif" font-size="11" lengthAdjust="spacing" textLength="52.0566" x="209.415" y="380.5776">Rejeitado</text><ellipse cx="283.4717" cy="383.1719" fill="none" rx="11" ry="11" style="stroke:#222222;stroke-width:1;"/><ellipse cx="283.4717" cy="383.1719" fill="#222222" rx="6" ry="6" style="stroke:#222222;stroke-width:1;"/><rect fill="#F1F1F1" height="33.9688" rx="12.5" ry="12.5" style="stroke:#181818;stroke-width:0.5;" width="102.2305" x="363.1816" y="371.1719"/><text fill="#000000" font-family="sans-serif" font-size="12" lengthAdjust="spacing" textLength="82.2305" x="373.1816" y="392.3105">Notifica Falha</text><ellipse cx="414.2969" cy="451.1406" fill="none" rx="11" ry="11" style="stroke:#222222;stroke-width:1;"/><ellipse cx="414.2969" cy="451.1406" fill="#222222" rx="6" ry="6" style="stroke:#222222;stroke-width:1;"/><rect fill="#F1F1F1" height="33.9688" rx="12.5" ry="12.5" style="stroke:#181818;stroke-width:0.5;" width="102.2305" x="495.4121" y="175.2656"/><text fill="#000000" font-family="sans-serif" font-size="12" lengthAdjust="spacing" textLength="82.2305" x="505.4121" y="196.4043">Notifica Falha</text><ellipse cx="546.5273" cy="240.2344" fill="none" rx="11" ry="11" style="stroke:#222222;stroke-width:1;"/><ellipse cx="546.5273" cy="240.2344" fill="#222222" rx="6" ry="6" style="stroke:#222222;stroke-width:1;"/><ellipse cx="407.7285" cy="547.1094" fill="none" rx="11" ry="11" style="stroke:#222222;stroke-width:1;"/><ellipse cx="407.7285" cy="547.1094" fill="#222222" rx="6" ry="6" style="stroke:#222222;stroke-width:1;"/><line style="stroke:#181818;stroke-width:1;" x1="407.7285" x2="407.7285" y1="67.2969" y2="87.2969"/><polygon fill="#181818" points="403.7285,77.2969,407.7285,87.2969,411.7285,77.2969,407.7285,81.2969" style="stroke:#181818;stroke-width:1;"/><line style="stroke:#181818;stroke-width:1;" x1="268.9297" x2="268.9297" y1="209.2344" y2="229.2344"/><polygon fill="#181818" points="264.9297,219.2344,268.9297,229.2344,272.9297,219.2344,268.9297,223.2344" style="stroke:#181818;stroke-width:1;"/><line style="stroke:#181818;stroke-width:1;" x1="268.9297" x2="268.9297" y1="263.2031" y2="283.2031"/><polygon fill="#181818" points="264.9297,273.2031,268.9297,283.2031,272.9297,273.2031,268.9297,277.2031" style="stroke:#181818;stroke-width:1;"/><line style="stroke:#181818;stroke-width:1;" x1="123.5625" x2="123.5625" y1="453.543" y2="482.1406"/><polygon fill="#181818" points="119.5625,472.1406,123.5625,482.1406,127.5625,472.1406,123.5625,476.1406" style="stroke:#181818;stroke-width:1;"/><line style="stroke:#181818;stroke-width:1;" x1="123.5625" x2="123.5625" y1="395.1719" y2="419.5742"/><polygon fill="#181818" points="119.5625,409.5742,123.5625,419.5742,127.5625,409.5742,123.5625,413.5742" style="stroke:#181818;stroke-width:1;"/><line style="stroke:#181818;stroke-width:1;" x1="209.415" x2="272.4717" y1="383.1719" y2="383.1719"/><polygon fill="#181818" points="262.4717,379.1719,272.4717,383.1719,262.4717,387.1719,266.4717,383.1719" style="stroke:#181818;stroke-width:1;"/><line style="stroke:#181818;stroke-width:1;" x1="123.5625" x2="123.5625" y1="516.1094" y2="521.1094"/><line style="stroke:#181818;stroke-width:1;" x1="123.5625" x2="407.7285" y1="521.1094" y2="521.1094"/><line style="stroke:#181818;stroke-width:1;" x1="407.7285" x2="407.7285" y1="521.1094" y2="536.1094"/><polygon fill="#181818" points="403.7285,526.1094,407.7285,536.1094,411.7285,526.1094,407.7285,530.1094" style="stroke:#181818;stroke-width:1;"/><line style="stroke:#181818;stroke-width:1;" x1="414.2969" x2="414.2969" y1="405.1406" y2="440.1406"/><polygon fill="#181818" points="410.2969,430.1406,414.2969,440.1406,418.2969,430.1406,414.2969,434.1406" style="stroke:#181818;stroke-width:1;"/><line style="stroke:#181818;stroke-width:1;" x1="142.6274" x2="123.5625" y1="349.1719" y2="349.1719"/><line style="stroke:#181818;stroke-width:1;" x1="123.5625" x2="123.5625" y1="349.1719" y2="371.1719"/><polygon fill="#181818" points="119.5625,361.1719,123.5625,371.1719,127.5625,361.1719,123.5625,365.1719" style="stroke:#181818;stroke-width:1;"/><line style="stroke:#181818;stroke-width:1;" x1="395.2319" x2="414.2969" y1="349.1719" y2="349.1719"/><line style="stroke:#181818;stroke-width:1;" x1="414.2969" x2="414.2969" y1="349.1719" y2="371.1719"/><polygon fill="#181818" points="410.2969,361.1719,414.2969,371.1719,418.2969,361.1719,414.2969,365.1719" style="stroke:#181818;stroke-width:1;"/><line style="stroke:#181818;stroke-width:1;" x1="268.9297" x2="268.9297" y1="317.1719" y2="337.1719"/><polygon fill="#181818" points="264.9297,327.1719,268.9297,337.1719,272.9297,327.1719,268.9297,331.1719" style="stroke:#181818;stroke-width:1;"/><line style="stroke:#181818;stroke-width:1;" x1="546.5273" x2="546.5273" y1="209.2344" y2="229.2344"/><polygon fill="#181818" points="542.5273,219.2344,546.5273,229.2344,550.5273,219.2344,546.5273,223.2344" style="stroke:#181818;stroke-width:1;"/><line style="stroke:#181818;stroke-width:1;" x1="346.5078" x2="268.9297" y1="153.2656" y2="153.2656"/><line style="stroke:#181818;stroke-width:1;" x1="268.9297" x2="268.9297" y1="153.2656" y2="175.2656"/><polygon fill="#181818" points="264.9297,165.2656,268.9297,175.2656,272.9297,165.2656,268.9297,169.2656" style="stroke:#181818;stroke-width:1;"/><line style="stroke:#181818;stroke-width:1;" x1="468.9492" x2="546.5273" y1="153.2656" y2="153.2656"/><line style="stroke:#181818;stroke-width:1;" x1="546.5273" x2="546.5273" y1="153.2656" y2="175.2656"/><polygon fill="#181818" points="542.5273,165.2656,546.5273,175.2656,550.5273,165.2656,546.5273,169.2656" style="stroke:#181818;stroke-width:1;"/><line style="stroke:#181818;stroke-width:1;" x1="407.7285" x2="407.7285" y1="121.2656" y2="141.2656"/><polygon fill="#181818" points="403.7285,131.2656,407.7285,141.2656,411.7285,131.2656,407.7285,135.2656" style="stroke:#181818;stroke-width:1;"/><!--SRC=[RP31JiCm38RlVGgVK7j0kwy7D3OsxG2gDdY0g7LRGn9NYOlWUJZm03p2NeoasHYWtHpx-_9R5XADKD60cYn2Wx3SpfOhoE_Uq0oQYoppefnayoKRGmAMOKDIPjH2VZkIRk0AdcmOFAANcmAaHmlvVgpH-s03p1ErDQf30okkNz2LiL-DleSTTkJ5yPJCLbJO8erN6EBV8JXxKHtPBdPZQWn23rihs3br-3nyy6nH8qcgVncNrab_B0R7hqT-K4v1vRWPf_UFb9ZcQFtPw4o78-WHPnk7Q8loHDvpk0WxPT0AGtNuyjT9JWHgZv3ly3akVGxmmaEQsuRQxCIjbUxLnCmVMAYbMi7KcpuxIadv9rpW9pp1iVm6]--></g></svg>