<svg xmlns="http://www.w3.org/2000/svg" xmlns:xlink="http://www.w3.org/1999/xlink" contentStyleType="text/css" data-diagram-type="ACTIVITY" height="674px" preserveAspectRatio="none" style="width:746px;height:674px;background:#FFFFFF;" version="1.1" viewBox="0 0 746 674" width="746px" zoomAndPan="magnify"><title>Estrat&#233;gia de Deploy Blue/Green</title><defs/><g><g class="title" data-source-line="1"><text fill="#000000" font-family="sans-serif" font-size="14" font-weight="bold" lengthAdjust="spacing" textLength="257.6123" x="242.9858" y="32.9951">Estrat&#233;gia de Deploy Blue/Green</text></g><ellipse cx="438.3291" cy="57.2969" fill="#222222" rx="10" ry="10" style="stroke:#222222;stroke-width:1;"/><rect fill="#F1F1F1" height="33.9688" rx="12.5" ry="12.5" style="stroke:#181818;stroke-width:0.5;" width="169.8594" x="353.3994" y="87.2969"/><text fill="#000000" font-family="sans-serif" font-size="12" lengthAdjust="spacing" textLength="149.8594" x="363.3994" y="108.4355">Ambiente Blue (v1) ativo</text><rect fill="#F1F1F1" height="33.9688" rx="12.5" ry="12.5" style="stroke:#181818;stroke-width:0.5;" width="121.0801" x="377.7891" y="141.2656"/><text fill="#000000" font-family="sans-serif" font-size="12" lengthAdjust="spacing" textLength="101.0801" x="387.7891" y="162.4043">Iniciar Deploy v2</text><rect fill="#F1F1F1" height="33.9688" rx="12.5" ry="12.5" style="stroke:#181818;stroke-width:0.5;" width="216.8398" x="329.9092" y="195.2344"/><text fill="#000000" font-family="sans-serif" font-size="12" lengthAdjust="spacing" textLength="196.8398" x="339.9092" y="216.373">Provisionar Ambiente Green (v2)</text><rect fill="#F1F1F1" height="33.9688" rx="12.5" ry="12.5" style="stroke:#181818;stroke-width:0.5;" width="237.3008" x="319.6787" y="249.2031"/><text fill="#000000" font-family="sans-serif" font-size="12" lengthAdjust="spacing" textLength="217.3008" x="329.6787" y="270.3418">Executar Testes no Ambiente Green</text><polygon fill="#F1F1F1" points="407.7112,303.1719,468.947,303.1719,480.947,315.1719,468.947,327.1719,407.7112,327.1719,395.7112,315.1719,407.7112,303.1719" style="stroke:#181818;stroke-width:0.5;"/><text fill="#000000" font-family="sans-serif" font-size="11" lengthAdjust="spacing" textLength="61.2358" x="407.7112" y="318.98">Testes OK?</text><text fill="#000000" font-family="sans-serif" font-size="11" lengthAdjust="spacing" textLength="20.7539" x="374.9573" y="312.5776">Sim</text><text fill="#000000" font-family="sans-serif" font-size="11" lengthAdjust="spacing" textLength="21.6992" x="480.947" y="312.5776">N&#227;o</text><rect fill="#F1F1F1" height="33.9688" rx="12.5" ry="12.5" style="stroke:#181818;stroke-width:0.5;" width="245.5566" x="115.0469" y="337.1719"/><text fill="#000000" font-family="sans-serif" font-size="12" lengthAdjust="spacing" textLength="225.5566" x="125.0469" y="358.3105">Redirecionar Tr&#225;fego para Green (v2)</text><rect fill="#F1F1F1" height="33.9688" rx="12.5" ry="12.5" style="stroke:#181818;stroke-width:0.5;" width="146.2344" x="164.708" y="391.1406"/><text fill="#000000" font-family="sans-serif" font-size="12" lengthAdjust="spacing" textLength="126.2344" x="174.708" y="412.2793">Monitorar Green (v2)</text><polygon fill="#F1F1F1" points="196.3469,445.1094,279.3035,445.1094,291.3035,457.1094,279.3035,469.1094,196.3469,469.1094,184.3469,457.1094,196.3469,445.1094" style="stroke:#181818;stroke-width:0.5;"/><text fill="#000000" font-family="sans-serif" font-size="11" lengthAdjust="spacing" textLength="82.9565" x="196.3469" y="460.9175">Green Est&#225;vel?</text><text fill="#000000" font-family="sans-serif" font-size="11" lengthAdjust="spacing" textLength="20.7539" x="163.593" y="454.5151">Sim</text><text fill="#000000" font-family="sans-serif" font-size="11" lengthAdjust="spacing" textLength="145.4385" x="291.3035" y="454.5151">N&#227;o - Problema Detectado</text><rect fill="#F1F1F1" height="33.9688" rx="12.5" ry="12.5" style="stroke:#181818;stroke-width:0.5;" width="193.1094" x="11" y="479.1094"/><text fill="#000000" font-family="sans-serif" font-size="12" lengthAdjust="spacing" textLength="173.1094" x="21" y="500.248">Desativar/Atualizar Blue (v1)</text><ellipse cx="107.5547" cy="544.0781" fill="none" rx="11" ry="11" style="stroke:#222222;stroke-width:1;"/><ellipse cx="107.5547" cy="544.0781" fill="#222222" rx="6" ry="6" style="stroke:#222222;stroke-width:1;"/><rect fill="#F1F1F1" height="33.9688" rx="12.5" ry="12.5" style="stroke:#181818;stroke-width:0.5;" width="85.5488" x="325.3213" y="479.1094"/><text fill="#000000" font-family="sans-serif" font-size="12" lengthAdjust="spacing" textLength="65.5488" x="335.3213" y="500.248">&#171;Rollback&#187;</text><rect fill="#F1F1F1" height="33.9688" rx="12.5" ry="12.5" style="stroke:#181818;stroke-width:0.5;" width="287.9727" x="224.1094" y="533.0781"/><text fill="#000000" font-family="sans-serif" font-size="12" lengthAdjust="spacing" textLength="267.9727" x="234.1094" y="554.2168">Redirecionar Tr&#225;fego de volta para Blue (v1)</text><rect fill="#F1F1F1" height="33.9688" rx="12.5" ry="12.5" style="stroke:#181818;stroke-width:0.5;" width="207.6758" x="264.2578" y="587.0469"/><text fill="#000000" font-family="sans-serif" font-size="12" lengthAdjust="spacing" textLength="187.6758" x="274.2578" y="608.1855">Investigar Causa no Green (v2)</text><ellipse cx="368.0957" cy="652.0156" fill="none" rx="11" ry="11" style="stroke:#222222;stroke-width:1;"/><ellipse cx="368.0957" cy="652.0156" fill="#222222" rx="6" ry="6" style="stroke:#222222;stroke-width:1;"/><rect fill="#F1F1F1" height="33.9688" rx="12.5" ry="12.5" style="stroke:#181818;stroke-width:0.5;" width="110.9258" x="583.3701" y="337.1719"/><text fill="#000000" font-family="sans-serif" font-size="12" lengthAdjust="spacing" textLength="90.9258" x="593.3701" y="358.3105">Abortar Deploy</text><rect fill="#F1F1F1" height="33.9688" rx="12.5" ry="12.5" style="stroke:#181818;stroke-width:0.5;" width="193.502" x="542.082" y="391.1406"/><text fill="#000000" font-family="sans-serif" font-size="12" lengthAdjust="spacing" textLength="173.502" x="552.082" y="412.2793">Manter Tr&#225;fego em Blue (v1)</text><ellipse cx="638.833" cy="456.1094" fill="none" rx="11" ry="11" style="stroke:#222222;stroke-width:1;"/><ellipse cx="638.833" cy="456.1094" fill="#222222" rx="6" ry="6" style="stroke:#222222;stroke-width:1;"/><line style="stroke:#181818;stroke-width:1;" x1="438.3291" x2="438.3291" y1="67.2969" y2="87.2969"/><polygon fill="#181818" points="434.3291,77.2969,438.3291,87.2969,442.3291,77.2969,438.3291,81.2969" style="stroke:#181818;stroke-width:1;"/><line style="stroke:#181818;stroke-width:1;" x1="438.3291" x2="438.3291" y1="121.2656" y2="141.2656"/><polygon fill="#181818" points="434.3291,131.2656,438.3291,141.2656,442.3291,131.2656,438.3291,135.2656" style="stroke:#181818;stroke-width:1;"/><line style="stroke:#181818;stroke-width:1;" x1="438.3291" x2="438.3291" y1="175.2344" y2="195.2344"/><polygon fill="#181818" points="434.3291,185.2344,438.3291,195.2344,442.3291,185.2344,438.3291,189.2344" style="stroke:#181818;stroke-width:1;"/><line style="stroke:#181818;stroke-width:1;" x1="438.3291" x2="438.3291" y1="229.2031" y2="249.2031"/><polygon fill="#181818" points="434.3291,239.2031,438.3291,249.2031,442.3291,239.2031,438.3291,243.2031" style="stroke:#181818;stroke-width:1;"/><line style="stroke:#181818;stroke-width:1;" x1="237.8252" x2="237.8252" y1="371.1406" y2="391.1406"/><polygon fill="#181818" points="233.8252,381.1406,237.8252,391.1406,241.8252,381.1406,237.8252,385.1406" style="stroke:#181818;stroke-width:1;"/><line style="stroke:#181818;stroke-width:1;" x1="107.5547" x2="107.5547" y1="513.0781" y2="533.0781"/><polygon fill="#181818" points="103.5547,523.0781,107.5547,533.0781,111.5547,523.0781,107.5547,527.0781" style="stroke:#181818;stroke-width:1;"/><line style="stroke:#181818;stroke-width:1;" x1="368.0957" x2="368.0957" y1="513.0781" y2="533.0781"/><polygon fill="#181818" points="364.0957,523.0781,368.0957,533.0781,372.0957,523.0781,368.0957,527.0781" style="stroke:#181818;stroke-width:1;"/><line style="stroke:#181818;stroke-width:1;" x1="368.0957" x2="368.0957" y1="567.0469" y2="587.0469"/><polygon fill="#181818" points="364.0957,577.0469,368.0957,587.0469,372.0957,577.0469,368.0957,581.0469" style="stroke:#181818;stroke-width:1;"/><line style="stroke:#181818;stroke-width:1;" x1="368.0957" x2="368.0957" y1="621.0156" y2="641.0156"/><polygon fill="#181818" points="364.0957,631.0156,368.0957,641.0156,372.0957,631.0156,368.0957,635.0156" style="stroke:#181818;stroke-width:1;"/><line style="stroke:#181818;stroke-width:1;" x1="184.3469" x2="107.5547" y1="457.1094" y2="457.1094"/><line style="stroke:#181818;stroke-width:1;" x1="107.5547" x2="107.5547" y1="457.1094" y2="479.1094"/><polygon fill="#181818" points="103.5547,469.1094,107.5547,479.1094,111.5547,469.1094,107.5547,473.1094" style="stroke:#181818;stroke-width:1;"/><line style="stroke:#181818;stroke-width:1;" x1="291.3035" x2="368.0957" y1="457.1094" y2="457.1094"/><line style="stroke:#181818;stroke-width:1;" x1="368.0957" x2="368.0957" y1="457.1094" y2="479.1094"/><polygon fill="#181818" points="364.0957,469.1094,368.0957,479.1094,372.0957,469.1094,368.0957,473.1094" style="stroke:#181818;stroke-width:1;"/><line style="stroke:#181818;stroke-width:1;" x1="237.8252" x2="237.8252" y1="425.1094" y2="445.1094"/><polygon fill="#181818" points="233.8252,435.1094,237.8252,445.1094,241.8252,435.1094,237.8252,439.1094" style="stroke:#181818;stroke-width:1;"/><line style="stroke:#181818;stroke-width:1;" x1="638.833" x2="638.833" y1="371.1406" y2="391.1406"/><polygon fill="#181818" points="634.833,381.1406,638.833,391.1406,642.833,381.1406,638.833,385.1406" style="stroke:#181818;stroke-width:1;"/><line style="stroke:#181818;stroke-width:1;" x1="638.833" x2="638.833" y1="425.1094" y2="445.1094"/><polygon fill="#181818" points="634.833,435.1094,638.833,445.1094,642.833,435.1094,638.833,439.1094" style="stroke:#181818;stroke-width:1;"/><line style="stroke:#181818;stroke-width:1;" x1="395.7112" x2="237.8252" y1="315.1719" y2="315.1719"/><line style="stroke:#181818;stroke-width:1;" x1="237.8252" x2="237.8252" y1="315.1719" y2="337.1719"/><polygon fill="#181818" points="233.8252,327.1719,237.8252,337.1719,241.8252,327.1719,237.8252,331.1719" style="stroke:#181818;stroke-width:1;"/><line style="stroke:#181818;stroke-width:1;" x1="480.947" x2="638.833" y1="315.1719" y2="315.1719"/><line style="stroke:#181818;stroke-width:1;" x1="638.833" x2="638.833" y1="315.1719" y2="337.1719"/><polygon fill="#181818" points="634.833,327.1719,638.833,337.1719,642.833,327.1719,638.833,331.1719" style="stroke:#181818;stroke-width:1;"/><line style="stroke:#181818;stroke-width:1;" x1="438.3291" x2="438.3291" y1="283.1719" y2="303.1719"/><polygon fill="#181818" points="434.3291,293.1719,438.3291,303.1719,442.3291,293.1719,438.3291,297.1719" style="stroke:#181818;stroke-width:1;"/><!--SRC=[TP5DJiD038NtSmelcmMgwBAjYWgj44BygFG2Jk8MYqcccd56m6qgLfmZ5yD9IaigiHlPxptRtmYB9LW6yIZrzvOHSe85xQpxW6jRqV3M4vN6144lPZmlKgPIgEt185ucWCBHJSpuhkICqV-QuqXhpzv53knAhH-jRQ9wHuagbk-KLPeDQmf20Kft9fmOti3Wq7swlqf0NXlx2nU90HYlA6TFMJTZxUlzXhOETkYnDqYL3wvaSLvb_KQJtrKKGxsFPC-7g7b1eJaK_N0k5Lh-r9WZWqch2U9s-Y0RjFfOVpcu00MGMYfGgGXbWhaxv4sdAsTjYjdRRDRP_xb4loCwAzYTT3PIeKSbmrjrt60LiE7Nl-wqLvdpnfosQ-dDK-Vb-6aT9bJsVnQWeZ-rZMl3VW00]--></g></svg>